<?xml version="1.0" encoding="UTF-8"?>
<svg width="100px" height="100px" viewBox="0 0 100 100" version="1.1" xmlns="http://www.w3.org/2000/svg" xmlns:xlink="http://www.w3.org/1999/xlink">
    <!-- Generator: Sketch 64 (93537) - https://sketch.com -->
    <title>arrow-back</title>
    <desc>Created with Sketch.</desc>
    <g id="arrow-back" stroke="none" stroke-width="1" fill="none" fill-rule="evenodd">
        <path d="M77.779442,46.0979992 L33.2781778,1.59754799 C32.2489178,0.567475061 30.8749453,0 29.4099165,0 C27.9448878,0 26.5709152,0.567475061 25.5416553,1.59754799 L22.2644462,4.87394411 C20.1319432,7.00888611 20.1319432,10.4787766 22.2644462,12.6104666 L59.6332481,49.9792685 L22.2229831,87.3895334 C21.1937232,88.4196063 20.6254351,89.7927659 20.6254351,91.2569817 C20.6254351,92.7228234 21.1937232,94.095983 22.2229831,95.1268689 L25.5001922,98.402452 C26.5302652,99.4325249 27.9034247,100 29.3684535,100 C30.8334822,100 32.2074548,99.4325249 33.2367147,98.402452 L77.779442,53.8613507 C78.8111409,52.8280258 79.377803,51.4483622 79.3745649,49.9817075 C79.377803,48.5093617 78.8111409,47.1305111 77.779442,46.0979992 Z" id="Path" fill="#000000" fill-rule="nonzero" transform="translate(50.000000, 50.000000) scale(-1, 1) translate(-50.000000, -50.000000) "></path>
    </g>
</svg>