<?xml version="1.0" encoding="UTF-8"?>
<svg width="100px" height="100px" viewBox="0 0 100 100" version="1.1" xmlns="http://www.w3.org/2000/svg" xmlns:xlink="http://www.w3.org/1999/xlink">
    <!-- Generator: Sketch 64 (93537) - https://sketch.com -->
    <title>error</title>
    <desc>Created with Sketch.</desc>
    <g id="error" stroke="none" stroke-width="1" fill="none" fill-rule="evenodd">
        <g id="close" transform="translate(0.271003, 0.000000)" fill-rule="nonzero">
            <path d="M85.1222222,14.6701897 C104.577507,34.1409214 104.565041,65.696477 85.0943089,85.1517615 C65.6235772,104.607046 34.0680217,104.59458 14.6127371,85.1238482 C-4.83170732,65.6642276 -4.83170732,34.1300813 14.6127371,14.6701897 C33.9571816,-4.80054201 65.4230352,-4.90271003 84.8937669,14.4417344 C84.9701897,14.5176152 85.0463415,14.5937669 85.1222222,14.6701897 Z" id="Path" fill="#D7443E"></path>
            <polygon id="Path" fill="#D4E1F4" points="74.6447154 33.7840108 58.504065 49.9249322 74.6447154 66.0655827 66.0081301 74.702168 49.8674797 58.5615176 33.7268293 74.702168 25.0899729 66.0655827 41.2308943 49.9249322 25.0899729 33.7840108 33.7268293 25.1474255 49.8674797 41.2880759 66.0081301 25.1474255"></polygon>
        </g>
    </g>
</svg>