<?xml version="1.0" encoding="UTF-8"?>
<svg width="100px" height="100px" viewBox="0 0 100 100" version="1.1" xmlns="http://www.w3.org/2000/svg" xmlns:xlink="http://www.w3.org/1999/xlink">
    <!-- Generator: Sketch 64 (93537) - https://sketch.com -->
    <title>graph</title>
    <desc>Created with Sketch.</desc>
    <g id="graph" stroke="none" stroke-width="1" fill="none" fill-rule="evenodd">
        <g id="increase" transform="translate(0.000000, 2.050781)" fill="#000000" fill-rule="nonzero">
            <path d="M12.5,41.6666667 C11.4333333,41.6666667 10.3666667,41.2583333 9.55416667,40.4458333 C7.925,38.8166667 7.925,36.1833333 9.55416667,34.5541667 L38.3291667,5.77916667 C39.9583333,4.15 42.5916667,4.15 44.2208333,5.77916667 C45.85,7.40833333 45.85,10.0416667 44.2208333,11.6708333 L15.4458333,40.4458333 C14.6333333,41.2583333 13.5666667,41.6666667 12.5,41.6666667 Z" id="Path"></path>
            <path d="M46.875,20.8333333 C46.0625,20.8333333 45.2625,20.5166667 44.6666667,19.9166667 L30.0833333,5.33333333 C29.1875,4.44166667 28.9208333,3.09583333 29.4041667,1.92916667 C29.8875,0.7625 31.0291667,1.38777878e-15 32.2916667,1.38777878e-15 L46.875,1.38777878e-15 C48.6,1.38777878e-15 50,1.4 50,3.125 L50,17.7083333 C50,18.9708333 49.2375,20.1125 48.0708333,20.5958333 C47.6833333,20.7541667 47.2791667,20.8333333 46.875,20.8333333 Z" id="Path"></path>
            <path d="M29.1666667,59.375 L29.1666667,83.3333333 L4.16666667,83.3333333 L4.16666667,59.375 C4.16666667,56.5 6.5,54.1666667 9.375,54.1666667 L23.9583333,54.1666667 C26.8333333,54.1666667 29.1666667,56.5 29.1666667,59.375 Z" id="Path"></path>
            <path d="M62.5,42.7083333 L62.5,83.3333333 L37.5,83.3333333 L37.5,42.7083333 C37.5,39.8333333 39.8333333,37.5 42.7083333,37.5 L57.2916667,37.5 C60.1666667,37.5 62.5,39.8333333 62.5,42.7083333 Z" id="Path"></path>
            <path d="M95.8333333,26.0416667 L95.8333333,83.3333333 L70.8333333,83.3333333 L70.8333333,26.0416667 C70.8333333,23.1666667 73.1666667,20.8333333 76.0416667,20.8333333 L90.625,20.8333333 C93.5,20.8333333 95.8333333,23.1666667 95.8333333,26.0416667 Z" id="Path"></path>
            <path d="M96.875,95.8333333 L3.125,95.8333333 C1.4,95.8333333 0,94.4333333 0,92.7083333 C0,90.9833333 1.4,89.5833333 3.125,89.5833333 L96.875,89.5833333 C98.6,89.5833333 100,90.9833333 100,92.7083333 C100,94.4333333 98.6,95.8333333 96.875,95.8333333 Z" id="Path"></path>
        </g>
    </g>
</svg>