<?xml version="1.0" encoding="UTF-8"?>
<svg width="100px" height="100px" viewBox="0 0 100 100" version="1.1" xmlns="http://www.w3.org/2000/svg" xmlns:xlink="http://www.w3.org/1999/xlink">
    <!-- Generator: Sketch 64 (93537) - https://sketch.com -->
    <title>help</title>
    <desc>Created with Sketch.</desc>
    <g id="help" stroke="none" stroke-width="1" fill="none" fill-rule="evenodd">
        <path d="M50,0 C77.57,0 100,22.430303 100,50.000303 C100,77.570303 77.57,100 50,100 C22.43,100 0,77.570303 0,50.000303 C0,22.430303 22.43,0 50,0 Z M50,9.09090909 C27.4424242,9.09090909 9.09090909,27.4430303 9.09090909,50.000303 C9.09090909,72.5575758 27.4424242,90.9090909 50,90.9090909 C72.5572727,90.9090909 90.9090909,72.5575758 90.9090909,50.000303 C90.9090909,27.4430303 72.5575758,9.09090909 50,9.09090909 Z M50,42.4242424 C52.2820937,42.4242424 54.1715001,44.1061858 54.4961683,46.2980215 L54.5454545,46.969697 L54.5454545,74.2424242 C54.5454545,76.7527273 52.510303,78.7878788 50,78.7878788 C47.7179063,78.7878788 45.8284999,77.1059354 45.5038317,74.9140997 L45.4545455,74.2424242 L45.4545455,46.969697 C45.4545455,44.4593939 47.489697,42.4242424 50,42.4242424 Z M49.9993939,21.2121212 C53.3406061,21.2121212 56.0587879,23.9321212 56.0587879,27.2754545 C56.0587879,30.6157576 53.3406061,33.3333333 49.9993939,33.3333333 C46.6581818,33.3333333 43.94,30.6157576 43.94,27.2754545 C43.94,23.9321212 46.6581818,21.2121212 49.9993939,21.2121212 Z" id="Shape" fill="#000000" fill-rule="nonzero"></path>
    </g>
</svg>