<?xml version="1.0" encoding="UTF-8"?>
<svg width="100px" height="100px" viewBox="0 0 100 100" version="1.1" xmlns="http://www.w3.org/2000/svg" xmlns:xlink="http://www.w3.org/1999/xlink">
    <!-- Generator: Sketch 64 (93537) - https://sketch.com -->
    <title>list</title>
    <desc>Created with Sketch.</desc>
    <g id="list" stroke="none" stroke-width="1" fill="none" fill-rule="evenodd">
        <g id="Group" transform="translate(50.413043, 50.000000) scale(-1, 1) rotate(-180.000000) translate(-50.413043, -50.000000) translate(-0.086957, 14.000000)" fill="#000000" fill-rule="nonzero">
            <polygon id="Path" points="0 64.9565217 0 57.9130435 7.04347826 57.9130435 14.0869565 57.9130435 14.0869565 64.9565217 14.0869565 72 7.04347826 72 0 72"></polygon>
            <polygon id="Path" points="21.9130435 64.9565217 21.9130435 57.9130435 61.0434783 57.9130435 100.173913 57.9130435 100.173913 64.9565217 100.173913 72 61.0434783 72 21.9130435 72"></polygon>
            <polygon id="Path" points="0 35.2173913 0 28.173913 7.04347826 28.173913 14.0869565 28.173913 14.0869565 35.2173913 14.0869565 42.2608696 7.04347826 42.2608696 0 42.2608696"></polygon>
            <polygon id="Path" points="21.9130435 35.2173913 21.9130435 28.173913 61.0434783 28.173913 100.173913 28.173913 100.173913 35.2173913 100.173913 42.2608696 61.0434783 42.2608696 21.9130435 42.2608696"></polygon>
            <polygon id="Path" points="0 7.04347826 0 0 7.04347826 0 14.0869565 0 14.0869565 7.04347826 14.0869565 14.0869565 7.04347826 14.0869565 0 14.0869565"></polygon>
            <polygon id="Path" points="21.9130435 7.04347826 21.9130435 0 61.0434783 0 100.173913 0 100.173913 7.04347826 100.173913 14.0869565 61.0434783 14.0869565 21.9130435 14.0869565"></polygon>
        </g>
    </g>
</svg>