<?xml version="1.0" encoding="UTF-8"?>
<svg width="100px" height="100px" viewBox="0 0 100 100" version="1.1" xmlns="http://www.w3.org/2000/svg" xmlns:xlink="http://www.w3.org/1999/xlink">
    <!-- Generator: Sketch 64 (93537) - https://sketch.com -->
    <title>more</title>
    <desc>Created with Sketch.</desc>
    <g id="more" stroke="none" stroke-width="1" fill="none" fill-rule="evenodd">
        <g transform="translate(0.000000, 37.500000)" fill="#000000" fill-rule="nonzero" id="Path">
            <path d="M96.2556202,3.69384615 C101.132946,8.53365385 101.132946,16.3805769 96.2556202,21.2203846 C91.3782946,26.0601923 83.4705426,26.0601923 78.5932171,21.2203846 C73.7158915,16.3805769 73.7158915,8.53365385 78.5932171,3.69384615 C83.4705426,-1.14596154 91.3782946,-1.14596154 96.2556202,3.69384615"></path>
            <path d="M58.7881783,3.69384615 C63.6655039,8.53365385 63.6655039,16.3805769 58.7881783,21.2203846 C53.9108527,26.0601923 46.0031008,26.0601923 41.1257752,21.2203846 C36.2484496,16.3805769 36.2484496,8.53365385 41.1257752,3.69384615 C46.0031008,-1.14596154 53.9108527,-1.14596154 58.7881783,3.69384615"></path>
            <path d="M21.3205426,3.69384615 C26.1978682,8.53365385 26.1978682,16.3805769 21.3205426,21.2203846 C16.4432171,26.0601923 8.53546512,26.0601923 3.65813953,21.2203846 C-1.21918605,16.3805769 -1.21918605,8.53365385 3.65813953,3.69384615 C8.53546512,-1.14596154 16.4432171,-1.14596154 21.3205426,3.69384615"></path>
        </g>
    </g>
</svg>