<?xml version="1.0" encoding="UTF-8"?>
<svg width="100px" height="100px" viewBox="0 0 100 100" version="1.1" xmlns="http://www.w3.org/2000/svg" xmlns:xlink="http://www.w3.org/1999/xlink">
    <!-- Generator: Sketch 64 (93537) - https://sketch.com -->
    <title>phone</title>
    <desc>Created with Sketch.</desc>
    <g id="phone" stroke="none" stroke-width="1" fill="none" fill-rule="evenodd">
        <path d="M97.3777297,73.3898342 L83.3930683,59.4345516 C78.3985464,54.4505221 69.9078592,56.4443286 67.9100504,62.9233722 C66.4116938,67.4091935 61.4171719,69.9012082 56.9221022,68.9042076 C46.9330584,66.4121929 33.4478492,53.4537162 30.9505883,42.9872543 C29.4522317,38.5014331 32.4489449,33.5174036 36.9440146,32.0223894 C43.4368931,30.0287776 45.4347018,21.5559275 40.4401799,16.571898 L26.4555186,2.61661548 C22.459901,-0.87220516 16.4664747,-0.87220516 12.9703094,2.61661548 L3.48071778,12.0862715 C-6.00887385,22.0543305 4.47962216,48.4696867 27.9538751,71.8946253 C51.4281281,95.3195639 77.8990942,106.284623 87.888138,96.3163698 L97.3777297,86.8467138 C100.87409,82.8594902 100.87409,76.8786548 97.3777297,73.3898342 Z" id="Path" fill="#000000" fill-rule="nonzero"></path>
    </g>
</svg>