<?xml version="1.0" encoding="UTF-8"?>
<svg width="100px" height="100px" viewBox="0 0 100 100" version="1.1" xmlns="http://www.w3.org/2000/svg" xmlns:xlink="http://www.w3.org/1999/xlink">
    <!-- Generator: Sketch 64 (93537) - https://sketch.com -->
    <title>pin</title>
    <desc>Created with Sketch.</desc>
    <g id="pin" stroke="none" stroke-width="1" fill="none" fill-rule="evenodd">
        <path d="M57.3736694,94.9574346 C54.0819669,91.5089843 53.1414804,89.1577682 53.6117237,86.3363089 C54.2387146,82.8878587 52.827985,81.0068858 44.2068594,73.4829944 C37.3099589,67.6833281 33.2345177,65.1753642 31.5102925,65.9591029 C30.0995629,66.4293462 27.9050945,67.2130848 26.6511126,67.6833281 C23.5161579,68.4670668 10.9763388,57.8082205 10.9763388,54.2030225 C10.9763388,52.7922929 14.8950322,47.7763653 19.5974644,43.0739331 L28.0618423,34.6095552 L16.4625096,22.5399794 C5.33342019,10.9406467 -1.24998483,1.37903466 0.630988036,-0.345190468 C2.04171768,-1.75592012 13.7977981,6.8652055 25.0836352,17.5240517 L35.5857337,27.2424115 L43.8933639,18.7780336 C48.595796,14.0756015 53.6117237,10.156908 55.179201,10.156908 C57.5304171,10.156908 68.973002,23.0102226 68.973002,25.8316819 C68.973002,26.3019251 68.0325156,28.1828979 66.7785337,29.7503753 C64.7408131,32.5718346 65.3678041,33.6690688 73.8321819,43.2306808 C80.8858302,51.2248155 83.8640372,53.5760316 86.2152533,52.9490406 C90.1339467,51.8518065 96.8740995,56.2407431 99.0685678,61.2566708 C100.792793,65.0186165 99.8523065,66.1158507 83.8640372,82.2608677 C74.3024252,91.8224798 65.5245518,99.503119 64.2705699,99.503119 C62.8598402,99.503119 59.7248855,97.4653984 57.3736694,94.9574346 Z" id="Path" fill="#000000" fill-rule="nonzero" transform="translate(50.000000, 49.503119) rotate(-90.000000) translate(-50.000000, -49.503119) "></path>
    </g>
</svg>