<?xml version="1.0" encoding="UTF-8"?>
<svg width="100px" height="100px" viewBox="0 0 100 100" version="1.1" xmlns="http://www.w3.org/2000/svg" xmlns:xlink="http://www.w3.org/1999/xlink">
    <!-- Generator: Sketch 64 (93537) - https://sketch.com -->
    <title>profile</title>
    <desc>Created with Sketch.</desc>
    <g id="profile" stroke="none" stroke-width="1" fill="none" fill-rule="evenodd">
        <g id="user" fill="#000000" fill-rule="nonzero">
            <path d="M50,0 C22.43,0 0,22.43 0,50 C0,62.075 4.30333333,73.1633333 11.4566667,81.8133333 C11.475,81.8383333 11.4766667,81.87 11.4966667,81.8933333 C16.6616667,88.1216667 23.1483333,92.8966667 30.3766667,95.9816667 C30.46,96.0166667 30.5416667,96.055 30.625,96.09 C31.21,96.3366667 31.8016667,96.565 32.395,96.7883333 C32.6283333,96.8766667 32.8616667,96.9666667 33.0983333,97.0516667 C33.61,97.235 34.125,97.4083333 34.6433333,97.575 C34.975,97.6816667 35.3066667,97.7866667 35.6416667,97.8866667 C36.1,98.0233333 36.56,98.155 37.0233333,98.28 C37.43,98.39 37.84,98.4916667 38.25,98.59 C38.665,98.69 39.0816667,98.79 39.5,98.8783333 C39.9666667,98.9783333 40.4383333,99.0666667 40.9116667,99.1533333 C41.2916667,99.2233333 41.67,99.2966667 42.0533333,99.3583333 C42.5783333,99.4433333 43.1066667,99.51 43.6366667,99.5783333 C43.9783333,99.6216667 44.3183333,99.6716667 44.6616667,99.7083333 C45.2616667,99.7716667 45.8666667,99.8166667 46.4733333,99.8583333 C46.755,99.8783333 47.035,99.9083333 47.3183333,99.9233333 C48.2033333,99.9733333 49.0983333,100 50,100 C50.9016667,100 51.7966667,99.9733333 52.685,99.9266667 C52.9683333,99.9116667 53.2483333,99.8816667 53.53,99.8616667 C54.1366667,99.8183333 54.7416667,99.775 55.3416667,99.7116667 C55.685,99.675 56.025,99.625 56.3666667,99.5816667 C56.8966667,99.5133333 57.425,99.4466667 57.95,99.3616667 C58.3316667,99.3 58.7116667,99.2266667 59.0916667,99.1566667 C59.5633333,99.07 60.035,98.9816667 60.5033333,98.8816667 C60.9216667,98.7916667 61.3366667,98.6933333 61.7533333,98.5933333 C62.1633333,98.4933333 62.5733333,98.3916667 62.98,98.2833333 C63.4433333,98.16 63.9033333,98.0266667 64.3616667,97.89 C64.6966667,97.79 65.0283333,97.685 65.36,97.5783333 C65.8783333,97.4116667 66.3933333,97.2383333 66.905,97.055 C67.14,96.97 67.3733333,96.88 67.6083333,96.7916667 C68.2033333,96.5683333 68.7933333,96.3383333 69.3783333,96.0933333 C69.4616667,96.0583333 69.5433333,96.02 69.6266667,95.985 C76.8533333,92.9 83.3416667,88.125 88.5066667,81.8966667 C88.5266667,81.8733333 88.5283333,81.84 88.5466667,81.8166667 C95.6966667,73.1633333 100,62.075 100,50 C100,22.43 77.57,0 50,0 Z M70.2616667,92.0333333 C70.2366667,92.045 70.2133333,92.0583333 70.1883333,92.07 C69.5933333,92.3566667 68.9883333,92.6266667 68.3783333,92.89 C68.24,92.9483333 68.1033333,93.0083333 67.965,93.0666667 C67.4316667,93.29 66.8916667,93.5016667 66.3483333,93.705 C66.1216667,93.79 65.895,93.8733333 65.6666667,93.9533333 C65.185,94.125 64.7016667,94.29 64.2133333,94.4466667 C63.91,94.5433333 63.605,94.635 63.3,94.725 C62.8666667,94.855 62.4316667,94.98 61.9916667,95.0966667 C61.6216667,95.195 61.2483333,95.285 60.875,95.3733333 C60.4833333,95.4666667 60.0933333,95.5616667 59.6983333,95.645 C59.2666667,95.7366667 58.8316667,95.815 58.3983333,95.8933333 C58.0466667,95.9583333 57.6966667,96.0266667 57.3416667,96.0833333 C56.8533333,96.16 56.36,96.2216667 55.8683333,96.2833333 C55.5566667,96.3233333 55.2466667,96.37 54.9316667,96.4033333 C54.37,96.4633333 53.8033333,96.5016667 53.2383333,96.5416667 C52.9866667,96.5583333 52.7366667,96.5866667 52.4816667,96.6 C51.6566667,96.6433333 50.83,96.6666667 50,96.6666667 C49.17,96.6666667 48.3433333,96.6433333 47.52,96.6 C47.2666667,96.5866667 47.0166667,96.56 46.7633333,96.5416667 C46.1966667,96.5033333 45.6316667,96.4633333 45.07,96.4033333 C44.755,96.37 44.445,96.3233333 44.1333333,96.2833333 C43.6416667,96.2216667 43.1483333,96.16 42.66,96.0833333 C42.305,96.0266667 41.955,95.9583333 41.6033333,95.8933333 C41.1683333,95.815 40.7333333,95.735 40.3033333,95.645 C39.9083333,95.5616667 39.5166667,95.4666667 39.1266667,95.3733333 C38.7533333,95.2833333 38.38,95.195 38.01,95.0966667 C37.5716667,94.98 37.135,94.8533333 36.7016667,94.725 C36.3966667,94.635 36.0916667,94.5433333 35.7883333,94.4466667 C35.3,94.29 34.815,94.125 34.335,93.9533333 C34.1066667,93.8716667 33.88,93.7883333 33.6533333,93.705 C33.11,93.5016667 32.57,93.29 32.0366667,93.0666667 C31.8983333,93.01 31.7633333,92.95 31.625,92.8916667 C31.015,92.63 30.41,92.3583333 29.8133333,92.0716667 C29.7883333,92.06 29.765,92.0483333 29.74,92.035 C23.925,89.2216667 18.7883333,85.2283333 14.62,80.3783333 C17.8416667,68.515 26.9616667,58.9516667 38.695,55.1466667 C38.9266667,55.2883333 39.1683333,55.415 39.4066667,55.5483333 C39.5466667,55.6266667 39.685,55.71 39.8266667,55.785 C40.3233333,56.0483333 40.8266667,56.295 41.3416667,56.5166667 C41.7366667,56.69 42.145,56.8366667 42.5516667,56.9866667 C42.6316667,57.015 42.7116667,57.0466667 42.7916667,57.075 C45.0516667,57.875 47.47,58.3333333 50,58.3333333 C52.53,58.3333333 54.9483333,57.875 57.2066667,57.075 C57.2866667,57.0466667 57.3666667,57.015 57.4466667,56.9866667 C57.8533333,56.8366667 58.2616667,56.69 58.6566667,56.5166667 C59.1716667,56.295 59.675,56.0483333 60.1716667,55.785 C60.3133333,55.7083333 60.4516667,55.6266667 60.5916667,55.5483333 C60.83,55.415 61.0733333,55.2883333 61.3066667,55.145 C73.04,58.9516667 82.1583333,68.515 85.3816667,80.3766667 C81.2133333,85.225 76.0766667,89.2183333 70.2616667,92.0333333 Z M31.6666667,36.6666667 C31.6666667,26.5583333 39.8916667,18.3333333 50,18.3333333 C60.1083333,18.3333333 68.3333333,26.5583333 68.3333333,36.6666667 C68.3333333,43.0966667 64.9983333,48.755 59.9733333,52.0283333 C59.3166667,52.455 58.6333333,52.8366667 57.9316667,53.17 C57.8483333,53.21 57.7666667,53.2516667 57.6833333,53.29 C52.8566667,55.485 47.1433333,55.485 42.3166667,53.29 C42.2333333,53.2516667 42.15,53.21 42.0683333,53.17 C41.365,52.8366667 40.6833333,52.455 40.0266667,52.0283333 C35.0016667,48.755 31.6666667,43.0966667 31.6666667,36.6666667 Z" id="Shape"></path>
        </g>
    </g>
</svg>