<?xml version="1.0" encoding="UTF-8"?>
<svg width="100px" height="100px" viewBox="0 0 100 100" version="1.1" xmlns="http://www.w3.org/2000/svg" xmlns:xlink="http://www.w3.org/1999/xlink">
    <!-- Generator: Sketch 64 (93537) - https://sketch.com -->
    <title>timeback</title>
    <desc>Created with Sketch.</desc>
    <g id="timeback" stroke="none" stroke-width="1" fill="none" fill-rule="evenodd">
        <g id="countdown" transform="translate(0.000000, 1.086957)" fill="#000000" fill-rule="nonzero">
            <path d="M72.3847826,51.5913043 C72.3847826,48.0913043 69.5478261,45.276087 66.0478261,45.276087 L55.5456522,45.276087 L55.5456522,26.276087 C55.5456522,22.776087 52.6630435,19.9391304 49.1630435,19.9391304 C45.6630435,19.9391304 42.7804348,22.776087 42.7804348,26.276087 L42.7804348,51.623913 C42.7804348,55.123913 45.6456522,57.9086957 49.1456522,57.9086957 L66.0434783,57.9086957 C69.5478261,57.9065217 72.3847826,55.0913043 72.3847826,51.5913043 Z" id="Path"></path>
            <path d="M49.1326087,1.54130435 C22.0391304,1.54130435 0,23.5826087 0,50.6717391 C0,61.223913 3.34782609,71.0065217 9.03043478,79.0217391 L3.94347826,84.0478261 C3.10217391,84.8782609 2.84347826,86.1347826 3.28913043,87.2304348 C3.73695652,88.326087 4.8,89.0434783 5.98478261,89.0478261 L24.2934783,89.123913 C26.4326087,89.1304348 28.1782609,87.4086957 28.1978261,85.273913 L28.3630435,66.9652174 C28.373913,65.7804348 27.6695652,64.7065217 26.5804348,64.2478261 C25.4913043,63.7847826 24.2282609,64.023913 23.3891304,64.8565217 L18.2369565,69.9413043 C14.723913,64.3478261 12.673913,57.7521739 12.673913,50.6717391 C12.673913,30.5695652 29.0282609,14.2130435 49.1326087,14.2130435 C69.2347826,14.2130435 85.5891304,30.5673913 85.5891304,50.6717391 C85.5891304,65.9956522 76.0782609,79.0978261 62.6521739,84.4652174 C59.7978261,85.6065217 58.1565217,88.626087 58.7543478,91.6434783 C59.1195652,93.4826087 60.2869565,95.0630435 61.9347826,95.9586957 C63.5847826,96.85 65.5478261,96.9695652 67.2891304,96.273913 C85.4152174,89.0434783 98.2652174,71.3478261 98.2652174,50.6717391 C98.2630435,23.5826087 76.2217391,1.54130435 49.1326087,1.54130435 Z" id="Path"></path>
        </g>
    </g>
</svg>