<?xml version="1.0" encoding="UTF-8"?>
<svg width="100px" height="100px" viewBox="0 0 100 100" version="1.1" xmlns="http://www.w3.org/2000/svg" xmlns:xlink="http://www.w3.org/1999/xlink">
    <!-- Generator: Sketch 64 (93537) - https://sketch.com -->
    <title>warning</title>
    <desc>Created with Sketch.</desc>
    <g id="warning" stroke="none" stroke-width="1" fill="none" fill-rule="evenodd">
        <g id="icon-warning" transform="translate(0.000000, 5.050505)" fill-rule="nonzero">
            <path d="M98.2543243,73.9246661 L58.8060023,5.59813131 C57.0279851,2.51727952 53.7630635,0.573290503 50.231969,0.473310141 L83.9712579,89.2582988 L89.3871918,89.2582988 C95.0282471,89.2582988 99.6187362,84.6680305 99.6187362,79.0267545 C99.6187362,77.2350534 99.1457607,75.4707201 98.2543243,73.9246661 Z" id="Path" fill="#FFD764"></path>
            <path d="M91.6198659,73.9246661 C92.3905754,75.4707201 92.7975595,77.2350534 92.7975595,79.0267545 C92.7975595,84.6678098 88.8391759,89.2582988 83.9710372,89.2582988 L10.4903271,89.2582988 C4.84927179,89.2582988 0.258782743,84.6678098 0.258782743,79.0267545 C0.258782743,77.2350534 0.731758272,75.4707201 1.62297394,73.9246661 L41.071296,5.59813131 C42.8994137,2.43319007 46.2963182,0.466468218 49.9386491,0.466468218 C50.0364224,0.466468218 50.1341957,0.46867529 50.231969,0.473310141 C53.2627202,0.5916092 56.061729,2.53096336 57.5872571,5.59813131 L91.6198659,73.9246661 Z" id="Path" fill="#FFD764"></path>
            <path d="M49.9386491,66.5206017 L49.9386491,77.8890089 C53.0786504,77.8890089 55.622963,75.3446963 55.622963,72.2046949 C55.622963,69.0649143 53.0786504,66.5206017 49.9386491,66.5206017 Z" id="Path" fill="#3B4145"></path>
            <path d="M49.9386491,66.5206017 C50.5661197,66.5206017 51.0755119,69.0649143 51.0755119,72.2049156 C51.0755119,75.344917 50.5661197,77.8892296 49.9386491,77.8892296 C46.7986478,77.8892296 44.2543352,75.344917 44.2543352,72.2049156 C44.2543352,69.0649143 46.7986478,66.5206017 49.9386491,66.5206017 Z" id="Path" fill="#525A61"></path>
            <path d="M49.9386491,17.6372676 L49.9386491,59.7005285 C53.0786504,59.7005285 55.622963,57.1540089 55.622963,54.0162146 L55.622963,23.3215816 C55.622963,20.1815802 53.0786504,17.6372676 49.9386491,17.6372676 Z" id="Path" fill="#3B4145"></path>
            <path d="M49.9386491,17.6372676 C50.5661197,17.6372676 51.0755119,20.1815802 51.0755119,23.3215816 L51.0755119,54.0162146 C51.0755119,57.1537882 50.5661197,59.7005285 49.9386491,59.7005285 C46.7986478,59.7005285 44.2543352,57.1540089 44.2543352,54.0162146 L44.2543352,23.3215816 C44.2543352,20.1815802 46.7986478,17.6372676 49.9386491,17.6372676 Z" id="Path" fill="#525A61"></path>
        </g>
    </g>
</svg>