<?xml version="1.0" encoding="UTF-8"?>
<svg width="100px" height="100px" viewBox="0 0 100 100" version="1.1" xmlns="http://www.w3.org/2000/svg" xmlns:xlink="http://www.w3.org/1999/xlink">
    <!-- Generator: Sketch 64 (93537) - https://sketch.com -->
    <title>whatsapp</title>
    <desc>Created with Sketch.</desc>
    <g id="whatsapp" stroke="none" stroke-width="1" fill="none" fill-rule="evenodd">
        <g id="social-media" fill-rule="nonzero">
            <path d="M85.1258581,14.3079476 C75.6674294,5.16479987 63.2221285,0 49.9678831,0 C11.9267467,0 -11.9599342,41.2146881 7.03574344,73.9997591 L0,99.5624072 L26.2803271,92.7091948 C37.7300039,98.8945093 47.1096123,98.3469161 49.9927737,98.7119783 C94.1030685,98.7119783 116.060728,45.346528 85.0636316,14.4697365 L85.1258581,14.3079476 Z" id="Path" fill="#ECEFF1"></path>
            <path d="M50.0591486,90.2325799 L50.034258,90.2284315 L49.9678831,90.2284315 C36.7675673,90.2284315 28.3338017,83.976742 27.504115,83.6158283 L11.9474889,87.6605511 L16.1166647,72.5395105 L15.125189,70.9838479 C11.0182397,64.4459165 8.83616364,56.9165094 8.83616364,49.163087 C8.83616364,12.68591 53.411083,-5.55475263 79.2060433,20.2277624 C104.938777,45.7406292 86.8723487,90.2325799 50.0591486,90.2325799 Z" id="Path" fill="#4CAF50"></path>
            <path d="M72.6266276,59.35164 L72.5892917,59.6627725 C71.3406132,59.0405074 65.2590095,56.0660805 64.1264871,55.6553856 C61.5834973,54.7136912 62.3011763,55.506042 57.4184699,61.0981305 C56.692494,61.9070751 55.9706666,61.9693016 54.7385818,61.4092631 C53.4940517,60.786998 49.4991101,59.4802414 44.7698958,55.2488391 C41.0860867,51.9508344 38.6136202,47.9061116 37.8834959,46.6615815 C36.6680049,44.5624741 39.2109947,44.2637869 41.5258207,39.8830409 C41.940664,39.0118699 41.7290939,38.3273783 41.4221098,37.7092617 C41.1109773,37.0869967 38.6343624,30.9887992 37.597254,28.5578171 C36.6016299,26.1351319 35.5769668,26.442116 34.8095066,26.442116 C32.4200088,26.2346943 30.6735183,26.2678818 29.1344494,27.8691771 C22.4388775,35.2284984 24.12729,42.8201319 29.8562768,50.8929838 C41.1151257,65.6282201 47.1137608,68.3412956 58.0822193,72.1080734 C61.0442009,73.0497678 63.7448312,72.9170179 65.8812745,72.6100339 C68.2624754,72.2325264 73.2115567,69.6190132 74.2445167,66.6943675 C75.3023673,63.7697218 75.3023673,61.3428881 74.9912348,60.7828496 C74.6842507,60.222811 73.8711577,59.9116785 72.6266276,59.35164 L72.6266276,59.35164 Z" id="Path" fill="#FAFAFA"></path>
        </g>
    </g>
</svg>